<?xml version="1.0" standalone="no"?>
<!DOCTYPE svg PUBLIC "-//W3C//DTD SVG 20010904//EN"
 "http://www.w3.org/TR/2001/REC-SVG-20010904/DTD/svg10.dtd">
<svg version="1.0" xmlns="http://www.w3.org/2000/svg"
 width="240.000000pt" height="240.000000pt" viewBox="0 0 240.000000 240.000000"
 preserveAspectRatio="xMidYMid meet">

<g transform="translate(0.000000,240.000000) scale(0.100000,-0.100000)"
fill="#000000" stroke="none">
<path d="M485 2285 c-100 -21 -223 -85 -298 -155 -73 -68 -118 -140 -154 -242
-23 -63 -26 -90 -27 -198 0 -116 2 -132 32 -220 91 -263 258 -472 831 -1045
l331 -330 331 330 c573 573 740 782 831 1045 30 88 32 104 32 220 0 109 -4
134 -26 198 -37 102 -83 175 -151 238 -184 171 -454 218 -696 123 -119 -47
-243 -146 -296 -237 -11 -17 -22 -32 -25 -32 -3 0 -17 20 -33 44 -62 98 -196
196 -328 240 -104 35 -247 43 -354 21z m264 -100 c85 -20 191 -77 259 -139 57
-52 132 -158 166 -234 10 -23 22 -42 25 -42 4 0 19 26 35 58 67 137 168 245
286 306 90 46 151 61 250 61 298 -2 507 -188 526 -470 16 -225 -97 -442 -412
-794 -147 -164 -666 -681 -684 -681 -15 0 -475 454 -635 627 -270 291 -412
511 -452 696 -27 127 -3 285 59 386 112 181 358 277 577 226z"/>
</g>
</svg>
